# Blender v2.75 (sub 0) OBJ File: ''
# www.blender.org
mtllib industrialCokeOven.mtl
o Cube
v -2.500000 0.000000 3.500000
v -2.500000 4.000000 3.500000
v -2.500000 0.000000 -3.500000
v -2.500000 4.000000 -3.500000
v 2.500000 0.000000 3.500000
v 2.500000 4.000000 3.500000
v 2.500000 0.000000 -3.500000
v 2.500000 4.000000 -3.500000
vt 0.000000 0.500000
vt 0.437500 0.500000
vt 0.437500 0.750000
vt 0.000000 0.750000
vt 0.437500 1.000000
vt 0.437500 0.687500
vt 0.687500 0.687500
vt 0.687500 1.000000
vt 0.000000 1.000000
vt 1.000000 1.000000
vt 0.687500 0.750000
vt 1.000000 0.750000
vt 0.000000 0.187500
vt 0.437500 0.187500
vt 0.437500 0.250000
vt 0.750000 0.250000
vt 0.750000 0.687500
vn -1.000000 0.000000 0.000000
vn 0.000000 0.000000 -1.000000
vn 1.000000 0.000000 0.000000
vn 0.000000 0.000000 1.000000
vn 0.000000 -1.000000 0.000000
vn 0.000000 1.000000 0.000000
usemtl None
s off
f 2/1/1 4/2/1 3/3/1 1/4/1
f 4/5/2 8/6/2 7/7/2 3/8/2
f 8/5/3 6/9/3 5/4/3 7/3/3
f 6/10/4 2/8/4 1/11/4 5/12/4
f 1/13/5 3/14/5 7/2/5 5/1/5
f 6/6/6 8/15/6 4/16/6 2/17/6
