# Blender v2.75 (sub 0) OBJ File: ''
# www.blender.org
mtllib meDenseWireConnector.mtl
o connectorMV
v -0.093750 0.062500 0.093750
v -0.093750 -0.000000 0.093750
v 0.093750 -0.000000 0.093750
v 0.093750 0.062500 0.093750
v 0.093750 0.062500 -0.093750
v 0.093750 0.000000 -0.093750
v -0.093750 0.000000 -0.093750
v -0.093750 0.062500 -0.093750
v -0.125000 -0.000000 0.125000
v -0.125000 -0.250000 0.125000
v 0.125000 -0.250000 0.125000
v 0.125000 -0.000000 0.125000
v 0.125000 0.000000 -0.125000
v 0.125000 -0.250000 -0.125000
v -0.125000 -0.250000 -0.125000
v -0.125000 0.000000 -0.125000
v -0.187500 -0.062500 0.187500
v -0.187500 -0.187500 0.187500
v 0.187500 -0.187500 0.187500
v 0.187500 -0.062500 0.187500
v 0.187500 -0.062500 -0.187500
v 0.187500 -0.187500 -0.187500
v -0.187500 -0.187500 -0.187500
v -0.187500 -0.062500 -0.187500
v -0.250000 -0.250000 0.250000
v -0.250000 -0.500000 0.250000
v 0.250000 -0.500000 0.250000
v 0.250000 -0.250000 0.250000
v 0.250000 -0.250000 -0.250000
v 0.250000 -0.500000 -0.250000
v -0.250000 -0.500000 -0.250000
v -0.250000 -0.250000 -0.250000
vt 0.593750 0.343750
vt 0.593750 0.312500
vt 0.687500 0.312500
vt 0.687500 0.343750
vt 0.781250 0.343750
vt 0.781250 0.312500
vt 0.875000 0.312500
vt 0.875000 0.343750
vt 0.593750 0.437500
vt 0.687500 0.437500
vt 0.781250 0.437500
vt 0.500000 0.343750
vt 0.500000 0.312500
vt 0.125000 0.656250
vt 0.125000 0.531250
vt 0.250000 0.531250
vt 0.250000 0.656250
vt 0.375000 0.656250
vt 0.375000 0.531250
vt 0.500000 0.531250
vt 0.500000 0.656250
vt 0.125000 0.781250
vt 0.250000 0.781250
vt 0.375000 0.781250
vt 0.000000 0.656250
vt 0.000000 0.531250
vt 0.437500 0.812500
vt 0.437500 0.750000
vt 0.625000 0.750000
vt 0.625000 0.812500
vt 0.812500 0.812500
vt 0.812500 0.750000
vt 1.000000 0.750000
vt 1.000000 0.812500
vt 0.437500 1.000000
vt 0.625000 1.000000
vt 0.812500 1.000000
vt 0.250000 0.812500
vt 0.250000 0.750000
vt 0.187500 0.125000
vt 0.187500 0.000000
vt 0.375000 0.000000
vt 0.375000 0.125000
vt 0.562500 0.125000
vt 0.562500 0.000000
vt 0.750000 0.000000
vt 0.750000 0.125000
vt 0.187500 0.312500
vt 0.375000 0.312500
vt 0.562500 0.312500
vt 0.000000 0.125000
vt 0.000000 0.000000
vn 0.000000 -0.000000 1.000000
vn 0.000000 0.000000 -1.000000
vn 0.000000 1.000000 0.000000
vn 0.000000 -1.000000 -0.000000
vn 1.000000 0.000000 0.000000
vn -1.000000 0.000000 0.000000
usemtl None
s off
f 1/1/1 2/2/1 3/3/1 4/4/1
f 5/5/2 6/6/2 7/7/2 8/8/2
f 8/9/3 1/1/3 4/4/3 5/10/3
f 2/5/4 7/11/4 6/10/4 3/4/4
f 5/5/5 4/4/5 3/3/5 6/6/5
f 8/12/6 7/13/6 2/2/6 1/1/6
f 9/14/1 10/15/1 11/16/1 12/17/1
f 13/18/2 14/19/2 15/20/2 16/21/2
f 16/22/3 9/14/3 12/17/3 13/23/3
f 10/18/4 15/24/4 14/23/4 11/17/4
f 13/18/5 12/17/5 11/16/5 14/19/5
f 16/25/6 15/26/6 10/15/6 9/14/6
f 17/27/1 18/28/1 19/29/1 20/30/1
f 21/31/2 22/32/2 23/33/2 24/34/2
f 24/35/3 17/27/3 20/30/3 21/36/3
f 18/31/4 23/37/4 22/36/4 19/30/4
f 21/31/5 20/30/5 19/29/5 22/32/5
f 24/38/6 23/39/6 18/28/6 17/27/6
f 25/40/1 26/41/1 27/42/1 28/43/1
f 29/44/2 30/45/2 31/46/2 32/47/2
f 32/48/3 25/40/3 28/43/3 29/49/3
f 26/44/4 31/50/4 30/49/4 27/43/4
f 29/44/5 28/43/5 27/42/5 30/45/5
f 32/51/6 31/52/6 26/41/6 25/40/6
