# Blender v2.75 (sub 0) OBJ File: ''
# www.blender.org
mtllib redstoneWireConnector.mtl
o channel
v -0.187500 -0.062500 0.187500
v -0.187500 -0.187500 0.187500
v 0.187500 -0.187500 0.187500
v 0.187500 -0.062500 0.187500
v 0.187500 -0.062500 -0.187500
v 0.187500 -0.187500 -0.187500
v -0.187500 -0.187500 -0.187500
v -0.187500 -0.062500 -0.187500
vt 0.437500 0.812500
vt 0.437500 0.750000
vt 0.625000 0.750000
vt 0.625000 0.812500
vt 0.812500 0.812500
vt 0.812500 0.750000
vt 1.000000 0.750000
vt 1.000000 0.812500
vt 0.437500 1.000000
vt 0.625000 1.000000
vt 0.812500 1.000000
vt 0.250000 0.812500
vt 0.250000 0.750000
vn 0.000000 -0.000000 1.000000
vn 0.000000 0.000000 -1.000000
vn 0.000000 1.000000 0.000000
vn 0.000000 -1.000000 -0.000000
vn 1.000000 0.000000 0.000000
vn -1.000000 0.000000 0.000000
usemtl None
s off
f 1/1/1 2/2/1 3/3/1 4/4/1
f 5/5/2 6/6/2 7/7/2 8/8/2
f 8/9/3 1/1/3 4/4/3 5/10/3
f 2/5/4 7/11/4 6/10/4 3/4/4
f 5/5/5 4/4/5 3/3/5 6/6/5
f 8/12/6 7/13/6 2/2/6 1/1/6
o connectorMV
v -0.093750 0.062500 0.093750
v -0.093750 -0.000000 0.093750
v 0.093750 -0.000000 0.093750
v 0.093750 0.062500 0.093750
v 0.093750 0.062500 -0.093750
v 0.093750 0.000000 -0.093750
v -0.093750 0.000000 -0.093750
v -0.093750 0.062500 -0.093750
v -0.125000 -0.000000 0.125000
v -0.125000 -0.250000 0.125000
v 0.125000 -0.250000 0.125000
v 0.125000 -0.000000 0.125000
v 0.125000 0.000000 -0.125000
v 0.125000 -0.250000 -0.125000
v -0.125000 -0.250000 -0.125000
v -0.125000 0.000000 -0.125000
v -0.187500 -0.250000 0.187500
v -0.187500 -0.500000 0.187500
v 0.187500 -0.500000 0.187500
v 0.187500 -0.250000 0.187500
v 0.187500 -0.250000 -0.187500
v 0.187500 -0.500000 -0.187500
v -0.187500 -0.500000 -0.187500
v -0.187500 -0.250000 -0.187500
vt 0.593750 0.343750
vt 0.593750 0.312500
vt 0.687500 0.312500
vt 0.687500 0.343750
vt 0.781250 0.343750
vt 0.781250 0.312500
vt 0.875000 0.312500
vt 0.875000 0.343750
vt 0.593750 0.437500
vt 0.687500 0.437500
vt 0.781250 0.437500
vt 0.500000 0.343750
vt 0.500000 0.312500
vt 0.125000 0.656250
vt 0.125000 0.531250
vt 0.250000 0.531250
vt 0.250000 0.656250
vt 0.375000 0.656250
vt 0.375000 0.531250
vt 0.500000 0.531250
vt 0.500000 0.656250
vt 0.125000 0.781250
vt 0.250000 0.781250
vt 0.375000 0.781250
vt 0.000000 0.656250
vt 0.000000 0.531250
vt 0.187500 0.125000
vt 0.187500 0.000000
vt 0.375000 0.000000
vt 0.375000 0.125000
vt 0.562500 0.125000
vt 0.562500 0.000000
vt 0.750000 0.000000
vt 0.750000 0.125000
vt 0.187500 0.312500
vt 0.375000 0.312500
vt 0.562500 0.312500
vt 0.000000 0.125000
vt 0.000000 0.000000
vn 0.000000 -0.000000 1.000000
vn 0.000000 0.000000 -1.000000
vn 0.000000 1.000000 0.000000
vn 0.000000 -1.000000 -0.000000
vn 1.000000 0.000000 0.000000
vn -1.000000 0.000000 0.000000
usemtl None
s off
f 9/14/7 10/15/7 11/16/7 12/17/7
f 13/18/8 14/19/8 15/20/8 16/21/8
f 16/22/9 9/14/9 12/17/9 13/23/9
f 10/18/10 15/24/10 14/23/10 11/17/10
f 13/18/11 12/17/11 11/16/11 14/19/11
f 16/25/12 15/26/12 10/15/12 9/14/12
f 17/27/7 18/28/7 19/29/7 20/30/7
f 21/31/8 22/32/8 23/33/8 24/34/8
f 24/35/9 17/27/9 20/30/9 21/36/9
f 18/31/10 23/37/10 22/36/10 19/30/10
f 21/31/11 20/30/11 19/29/11 22/32/11
f 24/38/12 23/39/12 18/28/12 17/27/12
f 25/40/7 26/41/7 27/42/7 28/43/7
f 29/44/8 30/45/8 31/46/8 32/47/8
f 32/48/9 25/40/9 28/43/9 29/49/9
f 26/44/10 31/50/10 30/49/10 27/43/10
f 29/44/11 28/43/11 27/42/11 30/45/11
f 32/51/12 31/52/12 26/41/12 25/40/12
